<svg xmlns="http://www.w3.org/2000/svg" viewBox="0 0 96 96" role="img" aria-labelledby="title"><title>TrimGids pootlogo</title><defs><linearGradient id="pawGold" x1="20" y1="18" x2="76" y2="80" gradientUnits="userSpaceOnUse"><stop stop-color="#ffe3a1"/><stop offset=".48" stop-color="#f0b84b"/><stop offset="1" stop-color="#c98924"/></linearGradient><filter id="softShadow" x="-20%" y="-20%" width="140%" height="150%"><feDropShadow dx="0" dy="3" stdDeviation="2.5" flood-color="#000" flood-opacity=".24"/></filter></defs><g filter="url(#softShadow)" aria-hidden="true"><ellipse cx="25" cy="32" rx="7.5" ry="11" transform="rotate(-31 25 32)" fill="url(#pawGold)"/><ellipse cx="43" cy="22" rx="7.5" ry="11" transform="rotate(-10 43 22)" fill="url(#pawGold)"/><ellipse cx="62" cy="23" rx="7.5" ry="11" transform="rotate(12 62 23)" fill="url(#pawGold)"/><ellipse cx="77" cy="36" rx="7.5" ry="11" transform="rotate(32 77 36)" fill="url(#pawGold)"/><path d="M50 39c-15 0-26 9-26 22 0 12 10 19 26 19s26-7 26-19c0-13-11-22-26-22Z" fill="url(#pawGold)"/></g><path d="M36 58c4-6 9-8 14-8s10 2 14 8" fill="none" stroke="#fff4d6" stroke-width="3" stroke-linecap="round" opacity=".9" aria-hidden="true"/><circle cx="50" cy="65" r="2" fill="#fff4d6" opacity=".8" aria-hidden="true"/></svg>
